<?xml version="1.0" encoding="UTF-8" standalone="no"?>
<!DOCTYPE svg PUBLIC "-//W3C//DTD SVG 1.1//EN"
 "http://www.w3.org/Graphics/SVG/1.1/DTD/svg11.dtd">
<!-- Generated by graphviz version 2.42.4 (0)
 -->
<!-- Pages: 1 -->
<svg width="991pt" height="298pt"
 viewBox="0.00 0.00 991.00 297.50" xmlns="http://www.w3.org/2000/svg" xmlns:xlink="http://www.w3.org/1999/xlink">
<g id="graph0" class="graph" transform="scale(1 1) rotate(0) translate(72 225.5)">
<polygon fill="white" stroke="transparent" points="-72,72 -72,-225.5 919,-225.5 919,72 -72,72"/>
<!-- cluster_theme&#45;aliases -->
<g id="node1" class="node">
<title>cluster_theme&#45;aliases</title>
<text text-anchor="start" x="96.5" y="-133.8" font-family="Times,serif" font-weight="bold" font-style="italic" font-size="14.00">theme&#45;aliases</text>
<defs>
<radialGradient id="r_0" cx="50%" cy="50%" r="75%" fx="50%" fy="50%">
<stop offset="0" style="stop-color:green;stop-opacity:1.;"/>
<stop offset="1" style="stop-color:transparent;stop-opacity:1.;"/>
</radialGradient>
</defs>
<polygon fill="url(#r_0)" stroke="transparent" points="11,-104 11,-125 17,-125 17,-104 11,-104"/>
<polygon fill="none" stroke="grey" points="11,-104 11,-125 17,-125 17,-104 11,-104"/>
<defs>
<radialGradient id="r_1" cx="50%" cy="50%" r="75%" fx="50%" fy="50%">
<stop offset="0" style="stop-color:green;stop-opacity:1.;"/>
<stop offset="1" style="stop-color:transparent;stop-opacity:1.;"/>
</radialGradient>
</defs>
<polygon fill="url(#r_1)" stroke="transparent" points="19,-104 19,-125 285,-125 285,-104 19,-104"/>
<polygon fill="none" stroke="grey" points="19,-104 19,-125 285,-125 285,-104 19,-104"/>
<text text-anchor="start" x="22" y="-110.8" font-family="Times,serif" font-size="14.00">2025&#45;09&#45;10 15:12:00.291715+00:00</text>
<defs>
<radialGradient id="r_2" cx="50%" cy="50%" r="75%" fx="50%" fy="50%">
<stop offset="0" style="stop-color:grey;stop-opacity:1.;"/>
<stop offset="1" style="stop-color:transparent;stop-opacity:1.;"/>
</radialGradient>
</defs>
<polygon fill="url(#r_2)" stroke="transparent" points="11,-81 11,-102 17,-102 17,-81 11,-81"/>
<polygon fill="none" stroke="grey" points="11,-81 11,-102 17,-102 17,-81 11,-81"/>
<defs>
<radialGradient id="r_3" cx="50%" cy="50%" r="75%" fx="50%" fy="50%">
<stop offset="0" style="stop-color:grey;stop-opacity:1.;"/>
<stop offset="1" style="stop-color:transparent;stop-opacity:1.;"/>
</radialGradient>
</defs>
<polygon fill="url(#r_3)" stroke="transparent" points="19,-81 19,-102 285,-102 285,-81 19,-81"/>
<polygon fill="none" stroke="grey" points="19,-81 19,-102 285,-102 285,-81 19,-81"/>
<text text-anchor="start" x="22" y="-87.8" font-family="Times,serif" font-size="14.00">2025&#45;09&#45;10 15:06:20.787411+00:00</text>
<polygon fill="none" stroke="grey" points="8,-78.5 8,-149.5 288,-149.5 288,-78.5 8,-78.5"/>
</g>
<!-- unique_5 -->
<g id="node8" class="node">
<title>unique_5</title>
</g>
<!-- cluster_theme&#45;aliases&#45;&gt;unique_5 -->
<g id="edge6" class="edge">
<title>cluster_theme&#45;aliases:e&#45;&gt;unique_5:w</title>
<path fill="none" stroke="grey" d="M286,-91C302.61,-91 309.1,-91 321.92,-91"/>
<polygon fill="grey" stroke="grey" points="322,-94.5 332,-91 322,-87.5 322,-94.5"/>
</g>
<!-- cluster_classifier -->
<g id="node2" class="node">
<title>cluster_classifier</title>
<text text-anchor="start" x="667" y="-93.8" font-family="Times,serif" font-weight="bold" font-style="italic" font-size="14.00">classifier</text>
<defs>
<radialGradient id="r_4" cx="50%" cy="50%" r="75%" fx="50%" fy="50%">
<stop offset="0" style="stop-color:orange;stop-opacity:1.;"/>
<stop offset="1" style="stop-color:transparent;stop-opacity:1.;"/>
</radialGradient>
</defs>
<polygon fill="url(#r_4)" stroke="transparent" points="562,-64 562,-85 568,-85 568,-64 562,-64"/>
<polygon fill="none" stroke="grey" points="562,-64 562,-85 568,-85 568,-64 562,-64"/>
<defs>
<radialGradient id="r_5" cx="50%" cy="50%" r="75%" fx="50%" fy="50%">
<stop offset="0" style="stop-color:orange;stop-opacity:1.;"/>
<stop offset="1" style="stop-color:transparent;stop-opacity:1.;"/>
</radialGradient>
</defs>
<polygon fill="url(#r_5)" stroke="transparent" points="570,-64 570,-85 836,-85 836,-64 570,-64"/>
<polygon fill="none" stroke="grey" points="570,-64 570,-85 836,-85 836,-64 570,-64"/>
<text text-anchor="start" x="573" y="-70.8" font-family="Times,serif" font-size="14.00">2025&#45;09&#45;10 15:10:00.769745+00:00</text>
<polygon fill="none" stroke="grey" points="559,-61 559,-109 839,-109 839,-61 559,-61"/>
</g>
<!-- cluster_sessions -->
<g id="node3" class="node">
<title>cluster_sessions</title>
<text text-anchor="start" x="118.5" y="-36.8" font-family="Times,serif" font-weight="bold" font-style="italic" font-size="14.00">sessions</text>
<defs>
<radialGradient id="r_6" cx="50%" cy="50%" r="75%" fx="50%" fy="50%">
<stop offset="0" style="stop-color:red;stop-opacity:1.;"/>
<stop offset="1" style="stop-color:transparent;stop-opacity:1.;"/>
</radialGradient>
</defs>
<polygon fill="url(#r_6)" stroke="transparent" points="11,-7 11,-28 17,-28 17,-7 11,-7"/>
<polygon fill="none" stroke="grey" points="11,-7 11,-28 17,-28 17,-7 11,-7"/>
<defs>
<radialGradient id="r_7" cx="50%" cy="50%" r="75%" fx="50%" fy="50%">
<stop offset="0" style="stop-color:red;stop-opacity:1.;"/>
<stop offset="1" style="stop-color:transparent;stop-opacity:1.;"/>
</radialGradient>
</defs>
<polygon fill="url(#r_7)" stroke="transparent" points="19,-7 19,-28 285,-28 285,-7 19,-7"/>
<polygon fill="none" stroke="grey" points="19,-7 19,-28 285,-28 285,-7 19,-7"/>
<text text-anchor="start" x="22" y="-13.8" font-family="Times,serif" font-size="14.00">2025&#45;09&#45;10 15:04:20.170505+00:00</text>
<polygon fill="none" stroke="grey" points="8,-4 8,-52 288,-52 288,-4 8,-4"/>
</g>
<!-- unique_1 -->
<g id="node4" class="node">
<title>unique_1</title>
</g>
<!-- cluster_sessions&#45;&gt;unique_1 -->
<g id="edge1" class="edge">
<title>cluster_sessions:e&#45;&gt;unique_1:w</title>
<path fill="none" stroke="red" d="M286,-17C302.62,-17 309.1,-17.66 321.91,-17.91"/>
<polygon fill="red" stroke="red" points="321.97,-21.41 332,-18 322.03,-14.41 321.97,-21.41"/>
</g>
<!-- unique_2 -->
<g id="node5" class="node">
<title>unique_2</title>
</g>
<!-- unique_1&#45;&gt;unique_2 -->
<g id="edge2" class="edge">
<title>unique_1:e&#45;&gt;unique_2:w</title>
<path fill="none" stroke="red" d="M334,-18C350.33,-18 349.85,-37.05 359.35,-44.79"/>
<polygon fill="red" stroke="red" points="358.41,-48.17 369,-48 360.62,-41.52 358.41,-48.17"/>
</g>
<!-- unique_3 -->
<g id="node6" class="node">
<title>unique_3</title>
</g>
<!-- unique_2&#45;&gt;unique_3 -->
<g id="edge3" class="edge">
<title>unique_2:e&#45;&gt;unique_3:w</title>
<path fill="none" stroke="red" d="M371,-48C382.77,-48 387.61,-51.86 395.81,-53.84"/>
<polygon fill="red" stroke="red" points="395.67,-57.35 406,-55 396.46,-50.4 395.67,-57.35"/>
</g>
<!-- unique_4 -->
<g id="node7" class="node">
<title>unique_4</title>
</g>
<!-- unique_3&#45;&gt;unique_4 -->
<g id="edge4" class="edge">
<title>unique_3:e&#45;&gt;unique_4:w</title>
<path fill="none" stroke="red" d="M408,-55C419.56,-55 424.66,-56.1 432.89,-56.67"/>
<polygon fill="red" stroke="red" points="432.89,-60.17 443,-57 433.12,-53.18 432.89,-60.17"/>
</g>
<!-- unique_4&#45;&gt;cluster_classifier -->
<g id="edge5" class="edge">
<title>unique_4:e&#45;&gt;cluster_classifier:w</title>
<path fill="none" stroke="red" d="M445,-57C484.15,-57 494.97,-51.69 533,-61 542.16,-63.24 545.48,-68.55 551.11,-71.64"/>
<polygon fill="red" stroke="red" points="550.46,-75.09 561,-74 552.08,-68.28 550.46,-75.09"/>
<text text-anchor="middle" x="497.5" y="-64" font-family="Times,serif" font-size="10.00" fill="red">sessions</text>
<polyline fill="none" stroke="red" points="519,-61 476,-61 498.17,-55.62 "/>
</g>
<!-- unique_6 -->
<g id="node9" class="node">
<title>unique_6</title>
</g>
<!-- unique_5&#45;&gt;unique_6 -->
<g id="edge7" class="edge">
<title>unique_5:e&#45;&gt;unique_6:w</title>
<path fill="none" stroke="grey" d="M334,-91C345.55,-91 350.66,-91 358.9,-91"/>
<polygon fill="grey" stroke="grey" points="359,-94.5 369,-91 359,-87.5 359,-94.5"/>
</g>
<!-- unique_7 -->
<g id="node10" class="node">
<title>unique_7</title>
</g>
<!-- unique_6&#45;&gt;unique_7 -->
<g id="edge8" class="edge">
<title>unique_6:e&#45;&gt;unique_7:w</title>
<path fill="none" stroke="grey" d="M371,-91C382.55,-91 387.66,-91 395.9,-91"/>
<polygon fill="grey" stroke="grey" points="396,-94.5 406,-91 396,-87.5 396,-94.5"/>
</g>
<!-- unique_8 -->
<g id="node11" class="node">
<title>unique_8</title>
</g>
<!-- unique_7&#45;&gt;unique_8 -->
<g id="edge9" class="edge">
<title>unique_7:e&#45;&gt;unique_8:w</title>
<path fill="none" stroke="grey" d="M408,-91C419.55,-91 424.66,-91 432.9,-91"/>
<polygon fill="grey" stroke="grey" points="433,-94.5 443,-91 433,-87.5 433,-94.5"/>
</g>
<!-- unique_8&#45;&gt;cluster_classifier -->
<g id="edge10" class="edge">
<title>unique_8:e&#45;&gt;cluster_classifier:w</title>
<path fill="none" stroke="grey" d="M445,-91C493.54,-91 507.09,-76.24 550.85,-74.23"/>
<polygon fill="grey" stroke="grey" points="551.08,-77.72 561,-74 550.92,-70.73 551.08,-77.72"/>
<text text-anchor="middle" x="497.5" y="-93" font-family="Times,serif" font-size="10.00" fill="grey">theme&#45;aliases</text>
<polyline fill="none" stroke="grey" points="533,-90 462,-90 494.79,-84.65 "/>
</g>
</g>
</svg>
